
<svg xmlns="http://www.w3.org/2000/svg" viewBox="-60 -60 120 120" width="120" height="120" fill="none" stroke="currentColor" stroke-width="1" stroke-linecap="round" stroke-linejoin="round">
  
  <circle r="54" stroke-width="0.75" opacity="0.5"></circle>
  <circle r="44" stroke-width="0.5" opacity="0.3"></circle>

  
  <g opacity="0.35" stroke-width="0.5">
    <line x1="-38" y1="-38" x2="38" y2="38"></line>
    <line x1="38" y1="-38" x2="-38" y2="38"></line>
  </g>

  
  <g stroke-width="1">
    
    <path d="M0 -54 L5 -10 L0 0 L-5 -10 Z"></path>
    
    <path d="M54 0 L10 5 L0 0 L10 -5 Z"></path>
    
    <path d="M0 54 L-5 10 L0 0 L5 10 Z"></path>
    
    <path d="M-54 0 L-10 -5 L0 0 L-10 5 Z"></path>
  </g>

  
  <g stroke-width="0.75" opacity="0.7">
    <path d="M30 -30 L8 -4 L0 0 L4 -8 Z"></path>
    <path d="M30 30 L4 8 L0 0 L8 4 Z"></path>
    <path d="M-30 30 L-8 4 L0 0 L-4 8 Z"></path>
    <path d="M-30 -30 L-4 -8 L0 0 L-8 -4 Z"></path>
  </g>

  
  <circle r="1.6" fill="currentColor" stroke="none"></circle>

  
  <text x="0" y="-58" text-anchor="middle" font-family="JetBrains Mono, monospace" font-size="5" letter-spacing="0.2em" fill="currentColor" stroke="none">N</text>
</svg>