<svg xmlns="http://www.w3.org/2000/svg" viewBox="0 0 900 500" fill="none">
  
  <g stroke="#114A13" stroke-width="0.5" opacity="0.45">
    <line x1="120" y1="110" x2="310" y2="180"></line>
    <line x1="310" y1="180" x2="480" y2="90"></line>
    <line x1="480" y1="90" x2="660" y2="180"></line>
    <line x1="660" y1="180" x2="790" y2="110"></line>
    <line x1="310" y1="180" x2="240" y2="340"></line>
    <line x1="240" y1="340" x2="460" y2="380"></line>
    <line x1="460" y1="380" x2="660" y2="180"></line>
    <line x1="460" y1="380" x2="700" y2="360"></line>
    <line x1="700" y1="360" x2="790" y2="110"></line>
    <line x1="120" y1="110" x2="240" y2="340"></line>
  </g>

  
  <g>
    <circle cx="120" cy="110" r="3" fill="#114A13"></circle>
    <circle cx="310" cy="180" r="4" fill="#114A13"></circle>
    <circle cx="480" cy="90" r="3" fill="#114A13"></circle>
    <circle cx="660" cy="180" r="5" fill="#114A13"></circle>
    <circle cx="790" cy="110" r="3" fill="#114A13"></circle>
    <circle cx="240" cy="340" r="4" fill="#114A13"></circle>
    <circle cx="460" cy="380" r="3" fill="#114A13"></circle>
    <circle cx="700" cy="360" r="4" fill="#C3552A"></circle>
  </g>

  
  <g font-family="JetBrains Mono, monospace" font-size="10" letter-spacing="1.2" fill="#114A13">
    <text x="130" y="100">— AUDITED</text>
    <text x="320" y="170">— ROUTED</text>
    <text x="490" y="80">— CLINICIAN-IN-LOOP</text>
    <text x="670" y="170">— EVIDENCE</text>
    <text x="800" y="100">— QUIET</text>
    <text x="250" y="330">— INSIDE THE EHR</text>
    <text x="470" y="370">— NO BROKERS</text>
    <text x="710" y="350" fill="#C3552A">— PATIENT CONSENT</text>
  </g>

  
  <g stroke="#114A13" stroke-width="0.5" opacity="0.4">
    <line x1="0" y1="40" x2="900" y2="40"></line>
    <line x1="0" y1="460" x2="900" y2="460"></line>
    <line x1="40" y1="0" x2="40" y2="500"></line>
    <line x1="860" y1="0" x2="860" y2="500"></line>
  </g>
  <g font-family="JetBrains Mono, monospace" font-size="9" letter-spacing="1.4" fill="#6B8270">
    <text x="40" y="28">CHART · 8 PRINCIPLES</text>
    <text x="860" y="28" text-anchor="end">FIG. 02</text>
    <text x="40" y="480">— DECLINATION 42°N</text>
    <text x="860" y="480" text-anchor="end">BEARING 287°</text>
  </g>
</svg>