<svg xmlns="http://www.w3.org/2000/svg" viewBox="0 0 480 600" preserveAspectRatio="xMidYMid slice">
  <defs>
    <linearGradient id="rs-bg" x1="0" y1="0" x2="0" y2="1">
      <stop offset="0%" stop-color="#0A3A0C"></stop>
      <stop offset="55%" stop-color="#114A13"></stop>
      <stop offset="100%" stop-color="#0A3A0C"></stop>
    </linearGradient>
    <radialGradient id="rs-glow" cx="0.7" cy="0.3" r="0.6">
      <stop offset="0%" stop-color="#C5E85C" stop-opacity="0.18"></stop>
      <stop offset="100%" stop-color="#C5E85C" stop-opacity="0"></stop>
    </radialGradient>
  </defs>
  <rect width="480" height="600" fill="url(#rs-bg)"></rect>
  <rect width="480" height="600" fill="url(#rs-glow)"></rect>

  
  <g stroke="#C5E85C" stroke-width="0.5" opacity="0.22" fill="none">
    <path d="M 0 80 Q 120 70 240 90 T 480 100"></path>
    <path d="M 0 130 Q 120 115 240 135 T 480 150"></path>
    <path d="M 0 180 Q 120 160 240 180 T 480 200"></path>
    <path d="M 0 230 Q 120 205 240 225 T 480 250"></path>
    <path d="M 0 280 Q 120 250 240 270 T 480 300"></path>
    <path d="M 0 330 Q 120 295 240 315 T 480 350"></path>
    <path d="M 0 380 Q 120 340 240 360 T 480 400"></path>
    <path d="M 0 430 Q 120 385 240 405 T 480 450"></path>
    <path d="M 0 480 Q 120 430 240 450 T 480 500"></path>
    <path d="M 0 530 Q 120 475 240 495 T 480 550"></path>
  </g>

  
  <g stroke="#C5E85C" stroke-width="0.5" opacity="0.3">
    <line x1="32" y1="0" x2="32" y2="600"></line>
    <line x1="448" y1="0" x2="448" y2="600"></line>
    <line x1="0" y1="40" x2="480" y2="40"></line>
    <line x1="0" y1="560" x2="480" y2="560"></line>
  </g>

  <g font-family="JetBrains Mono, monospace" font-size="10" letter-spacing="1.6" fill="#8AA87E">
    <text x="32" y="26">— QUAD 03 · NORTH-EAST</text>
    <text x="448" y="26" text-anchor="end">SCALE 1:24K</text>
    <text x="32" y="582">— LAT 40°43&#39;N</text>
    <text x="448" y="582" text-anchor="end">LON 73°59&#39;W</text>
  </g>

  
  <path d="M 60 470 Q 130 420 180 380 Q 250 330 300 250 Q 350 180 410 130" stroke="#C5E85C" stroke-width="2" fill="none"></path>
  <path d="M 60 470 Q 130 420 180 380 Q 250 330 300 250 Q 350 180 410 130" stroke="#C5E85C" stroke-width="10" opacity="0.12" fill="none"></path>

  
  <g>
    <circle cx="60" cy="470" r="4" fill="#C5E85C"></circle>
    <circle cx="60" cy="470" r="14" fill="none" stroke="#C5E85C" stroke-width="0.5" opacity="0.5"></circle>
    <text x="78" y="475" font-family="JetBrains Mono, monospace" font-size="10" letter-spacing="1.4" fill="#C5E85C">— 2023 · ORIGIN</text>

    <circle cx="180" cy="380" r="3" fill="#C5E85C"></circle>
    <text x="196" y="385" font-family="JetBrains Mono, monospace" font-size="10" letter-spacing="1.4" fill="#C5E85C">— 2024 · SOC 2</text>

    <circle cx="300" cy="250" r="4" fill="#C5E85C"></circle>
    <circle cx="300" cy="250" r="14" fill="none" stroke="#C5E85C" stroke-width="0.5" opacity="0.5"></circle>
    <text x="316" y="255" font-family="JetBrains Mono, monospace" font-size="10" letter-spacing="1.4" fill="#C5E85C">— 2025 · HITRUST</text>

    <circle cx="410" cy="130" r="6" fill="#C3552A"></circle>
    <circle cx="410" cy="130" r="18" fill="none" stroke="#C3552A" stroke-width="0.6"></circle>
    <text x="392" y="108" font-family="JetBrains Mono, monospace" font-size="10" letter-spacing="1.4" fill="#C3552A" text-anchor="end">— 2026 · HERE</text>
  </g>

  
  <g transform="translate(410, 510)" opacity="0.8">
    <circle r="22" fill="none" stroke="#C5E85C" stroke-width="0.5"></circle>
    <line x1="0" y1="-22" x2="0" y2="22" stroke="#C5E85C" stroke-width="0.5"></line>
    <line x1="-22" y1="0" x2="22" y2="0" stroke="#C5E85C" stroke-width="0.5"></line>
    <polygon points="0,-22 -3,0 0,4 3,0" fill="#C5E85C"></polygon>
    <text y="-28" text-anchor="middle" font-family="JetBrains Mono, monospace" font-size="8" fill="#C5E85C">N</text>
  </g>

  
  <g fill="#8AA87E" opacity="0.6" font-family="JetBrains Mono, monospace" font-size="8" letter-spacing="1.2">
    <text x="50" y="200">▲ 412</text>
    <text x="160" y="160">▲ 488</text>
    <text x="380" y="320">▲ 521</text>
  </g>
</svg>